<svg xmlns="http://www.w3.org/2000/svg" style="display:none;">
	<symbol class="sprite" id="icon-enter" viewBox="0 0 20.063 19">
		 <path
			 d="M973,32.968v-0.96a3,3,0,0,1,3-3h11.059a3,3,0,0,1,3,3V44.986a3,3,0,0,1-3,3H976a3,3,0,0,1-3-3V44h2v2h13V31H975v1.968h-2Zm-3,8.046h6.029v2.743l7.027-5.3-7.027-5.3V35.9H970v5.114Z" transform="translate(-970 -29)" fill-rule="evenodd" fill-opacity="0.99" />
	</symbol>

	<symbol class="sprite" id="icon-magnifier" viewBox="0 0 16.687 16.688">
		<path d="M931.155,40.747H930.4l-0.264-.261a6.212,6.212,0,1,0-.675.675l0.263,0.262v0.755l4.773,4.76,1.423-1.422Zm-5.731,0a4.291,4.291,0,1,1,4.3-4.291A4.294,4.294,0,0,1,925.424,40.747Z" fill-rule="evenodd" transform="translate(-919.219 -30.25)"/>
	</symbol>

	<symbol class="sprite" id="icon-cart" viewBox="0 0 20.63 19.719">
		<path d="M1092.58,33.46l-1.21,8.912a2.025,2.025,0,0,1-1.88,1.635h-10.88a2.025,2.025,0,0,1-1.88-1.635l-1.47-10.287a3.738,3.738,0,0,1-.13-1.055H1073a1,1,0,0,1,0-2h4a0.992,0.992,0,0,1,.1,1.98h13.97C1092.17,31.01,1092.84,32.141,1092.58,33.46Zm-13.85,8.518-1.31-9h13.2l-0.03.2-1.18,8.788a0.033,0.033,0,0,0-.01.014h-10.67Zm0.52,3.009a1.874,1.874,0,1,1-1.88,1.874A1.874,1.874,0,0,1,1079.25,44.987Zm9,0a1.874,1.874,0,1,1-1.88,1.874A1.874,1.874,0,0,1,1088.25,44.987Z" transform="translate(-1072 -29.031)" fill-rule="evenodd"/>
	</symbol>

	<symbol class="sprite" id="icon-icecream" viewBox="0 0 47.375 47.38">
		<path d="M77.454,1381.45a8.575,8.575,0,0,0-14.639,6.06v14.68a0.808,0.808,0,0,0,.809.81H79.157a0.808,0.808,0,0,0,.809-0.81v-14.68A8.512,8.512,0,0,0,77.454,1381.45Zm0.894,19.93H64.433v-10.89c0.045,0.05.092,0.1,0.143,0.16a2.619,2.619,0,0,0,4.309,0,1.185,1.185,0,0,1,.946-0.6,1,1,0,0,1,.309.43,10.746,10.746,0,0,1,.488,1.22,9.606,9.606,0,0,0,.7,1.65,1.753,1.753,0,0,0,3.237,0,9.614,9.614,0,0,0,.7-1.65,10.67,10.67,0,0,1,.488-1.22,1,1,0,0,1,.309-0.43,1.186,1.186,0,0,1,.946.6,3.205,3.205,0,0,0,1.346,1v9.73Zm-9.007,8.58a2.049,2.049,0,1,0,4.1,0v-6.16h-4.1v6.16ZM71.5,1371.8a23.7,23.7,0,1,1-23.7,23.7A23.7,23.7,0,0,1,71.5,1371.8Zm0,45.4a21.7,21.7,0,1,1,21.7-21.7A21.722,21.722,0,0,1,71.5,1417.2Z" fill="#323232" fill-rule="evenodd" transform="translate(-47.813 -1371.81)"/>
	</symbol>

	<symbol class="sprite" id="icon-leaf" viewBox="0 0 47.375 47.38">
		<path d="M71.437,1499.62s-22.24-10.18,0-32.75C93.677,1489.44,71.437,1499.62,71.437,1499.62Zm7.516-17.18-6.536,4.16h0l-0.021,3.68,6.894-4.41A13.37,13.37,0,0,0,78.953,1482.44Zm-15.39,3.19,6.833,4.48v-3.62l-6.453-4.15A13.622,13.622,0,0,0,63.563,1485.63Zm6.833-1.52v-3.63L66,1477.1a21.756,21.756,0,0,0-1.464,3.24Zm0-6.09v-7.04a39.184,39.184,0,0,0-3.356,4.42Zm2,0.28,3.629-2.6a39.493,39.493,0,0,0-3.629-4.82v7.42Zm0.021,2.3h0l-0.021,3.68,5.981-3.85a21.714,21.714,0,0,0-1.337-3.01Zm6.443,7.9-6.443,4.1h0l-0.021,4.16A15.3,15.3,0,0,0,78.859,1488.5Zm-8.463,8.2v-4.21l-6.417-4.13C65.085,1492.5,68.3,1495.29,70.4,1496.7Zm1.1-36.9a23.7,23.7,0,1,1-23.7,23.7A23.7,23.7,0,0,1,71.5,1459.8Zm0,45.4a21.7,21.7,0,1,1,21.7-21.7A21.722,21.722,0,0,1,71.5,1505.2Z"  transform="translate(-47.813 -1459.81)" fill="#323232" fill-rule="evenodd"/>
	</symbol>

	<symbol class="sprite" id="icon-cow" viewBox="0 0 47.406 47.38">
		<path d="M652.578,1395a2.42,2.42,0,0,1-2.127,1.04,9.366,9.366,0,0,1-3.256-.84,17.086,17.086,0,0,1-1.576,8.35,5.2,5.2,0,0,1,.517,3.08c-0.488,3.38-4.283,5.23-8.524,5.23s-8.018-1.85-8.48-5.23a5.164,5.164,0,0,1,.33-2.62,17.331,17.331,0,0,1-1.786-8.73,8.929,8.929,0,0,1-3.065.76,2.42,2.42,0,0,1-2.127-1.04,2.326,2.326,0,0,1-.162-2.22c0.812-1.91,3.593-2.74,4.75-3.01l0.1-.02c-1.4-2.9-.723-7.6-0.2-9.19l3.057,0.25c0.056,1,.766,2.88,3.436,5.01l1.585,1.09a12.914,12.914,0,0,1,2.4-.23,12.732,12.732,0,0,1,2.289.21l1.692-1.16c2.67-2.13,3.379-4.01,3.435-5.01l3.058-.26c0.528,1.6,1.207,6.35-.224,9.24l0.294,0.07c1.157,0.27,3.937,1.1,4.75,3.01A2.326,2.326,0,0,1,652.578,1395Zm-25.069-3.28s-2.859.66-3.362,1.85,3.155-.14,3.835-0.7A2.317,2.317,0,0,1,627.509,1391.72Zm3.3,0.07c-1.752,2.75-1.578,7,.467,11.37l0.367,0.78-0.318.8a3.209,3.209,0,0,0-.208,1.62c0.329,2.41,3.6,3.5,6.5,3.5s6.2-1.1,6.545-3.52a3.177,3.177,0,0,0-.33-1.9l-0.416-.84,0.378-.86c1.878-4.25,1.97-8.37.244-11.02-1.3-1.99-3.575-3.04-6.587-3.04C634.4,1388.68,632.1,1389.75,630.806,1391.79Zm20.093,1.78c-0.5-1.19-3.361-1.85-3.361-1.85a2.328,2.328,0,0,1-.474,1.15C647.745,1393.43,651.4,1394.75,650.9,1393.57Zm-18.57-6.1s-3.595-2.48-3.735-5.02c-0.4,2.18-.584,5.62.7,6.99A21,21,0,0,1,632.329,1387.47Zm10.232-.1s3.595-2.47,3.736-5.01c0.4,2.17.584,5.61-.705,6.98A22.893,22.893,0,0,0,642.561,1387.37Zm-5.378-15.57a23.7,23.7,0,1,1-23.7,23.7A23.7,23.7,0,0,1,637.183,1371.8Zm0,45.4a21.7,21.7,0,1,1,21.7-21.7A21.722,21.722,0,0,1,637.183,1417.2Z" transform="translate(-613.469 -1371.81)" fill="#323232" fill-rule="evenodd" />
	</symbol>

	<symbol class="sprite" id="icon-term" viewBox="0 0 47.406 47.38">
		<path
			d="M637.023,1498.33a6.814,6.814,0,0,1-6.823-6.77,8.038,8.038,0,0,1,1.822-4.6v-14.84a5,5,0,0,1,10,0v14.91a7.629,7.629,0,0,1,1.778,4.53A6.775,6.775,0,0,1,637.023,1498.33Zm0-2a4.8,4.8,0,0,1-4.8-4.77,5.237,5.237,0,0,1,1.845-3.78v-15.66a3,3,0,0,1,6,0v15.72a5.092,5.092,0,0,1,1.754,3.72A4.8,4.8,0,0,1,637.023,1496.33Zm2.706-4.91a2.774,2.774,0,1,1-3.675-2.61v-16.84a0.949,0.949,0,0,1,1.9,0v16.87A2.765,2.765,0,0,1,639.729,1491.42ZM645,1475h4a1,1,0,0,1,0,2h-4A1,1,0,0,1,645,1475Zm0-4h4a1,1,0,0,1,0,2h-4A1,1,0,0,1,645,1471Zm0,8h4a1,1,0,0,1,0,2h-4A1,1,0,0,1,645,1479Zm0,4h4a1,1,0,0,1,0,2h-4A1,1,0,0,1,645,1483Zm-7.817-23.2a23.7,23.7,0,1,1-23.7,23.7A23.7,23.7,0,0,1,637.183,1459.8Zm0,45.4a21.7,21.7,0,1,1,21.7-21.7A21.722,21.722,0,0,1,637.183,1505.2Z" transform="translate(-613.469 -1459.81)" fill="#323232" fill-rule="evenodd" />
	</symbol>

	<symbol class="sprite" id="icon-twitter" viewBox="0 0 31.375 31.4">
		<path d="M46.427,2352.17a15.69,15.69,0,1,1-15.692,15.69A15.688,15.688,0,0,1,46.427,2352.17Zm9.138,10.81a7.331,7.331,0,0,1-2.092.57,3.663,3.663,0,0,0,1.6-2.02,7.4,7.4,0,0,1-2.313.89,3.645,3.645,0,0,0-6.207,3.32,10.316,10.316,0,0,1-7.507-3.81,3.655,3.655,0,0,0,1.127,4.87,3.68,3.68,0,0,1-1.65-.46c0,0.02,0,.03,0,0.05a3.651,3.651,0,0,0,2.922,3.57,3.789,3.789,0,0,1-.96.13,3.861,3.861,0,0,1-.685-0.07,3.643,3.643,0,0,0,3.4,2.53,7.29,7.29,0,0,1-4.524,1.56,8.291,8.291,0,0,1-.869-0.05,10.354,10.354,0,0,0,15.946-8.73c0-.16,0-0.31-0.011-0.47A7.33,7.33,0,0,0,55.565,2362.98Z" transform="translate(-30.75 -2352.16)" fill= "#fff" fill-rule="evenodd" opacity="0.8"/>
	</symbol>

  <symbol class="sprite" id="icon-inst" viewBox="0 0 31.376 31.41">
    <path d="M95.865,2352.23a15.69,15.69,0,1,1-15.692,15.69A15.688,15.688,0,0,1,95.865,2352.23Zm6.271,23.61a1.745,1.745,0,0,0,1.745-1.75v-12.31a1.743,1.743,0,0,0-1.745-1.74H89.809a1.743,1.743,0,0,0-1.745,1.74v12.31a1.745,1.745,0,0,0,1.745,1.75h12.328Zm-1.375-9.1a4.921,4.921,0,1,1-9.529,0h-1.38v6.78a0.609,0.609,0,0,0,.611.61h11.065a0.609,0.609,0,0,0,.612-0.61v-6.78h-1.38ZM96,2365.13a2.848,2.848,0,1,1,0,5.68A2.84,2.84,0,0,1,96,2365.13Zm3.7-3.31h1.865a0.608,0.608,0,0,1,.611.61v1.86a0.608,0.608,0,0,1-.611.61H99.7a0.609,0.609,0,0,1-.611-0.61v-1.86A0.609,0.609,0,0,1,99.7,2361.82Z" fill= "#fff" fill-rule="evenodd" opacity="0.8" transform="translate(-80.188 -2352.22)"/>
  </symbol>

  <symbol class="sprite" id="icon-facebook" viewBox="0 0 31.375 31.41">
    <path d="M144.865,2352.23a15.69,15.69,0,1,1-15.692,15.69A15.687,15.687,0,0,1,144.865,2352.23Zm0.773,24.99v-9.29h2.743l0.285-3.09h-3.028l0-1.86c0-.89.085-1.26,1.367-1.26h1.764v-3.42h-2.792c-3.294,0-4.082,1.54-4.082,4.34v2.2h-1.889v3.09H141.9v9.29h3.738Z" transform="translate(-129.188 -2352.22)"  fill= "#fff" fill-rule="evenodd" opacity="0.8"/>
  </symbol>

	<symbol class="sprite" id="icon-vk" viewBox="0 0 31.375 31.41">
		<path
			d="M193.865,2352.23a15.69,15.69,0,1,1-15.692,15.69A15.687,15.687,0,0,1,193.865,2352.23Zm5.967,18.25a3.1,3.1,0,0,0-.757-2.2,3.7,3.7,0,0,0-2.016-1.09v-0.07a2.881,2.881,0,0,0,1.371-1.14,3.211,3.211,0,0,0,.5-1.77,3.133,3.133,0,0,0-.362-1.52,2.6,2.6,0,0,0-1.091-1.05,4.522,4.522,0,0,0-1.446-.48,17.993,17.993,0,0,0-2.269-.11h-4.8v13.59H194.4a8.909,8.909,0,0,0,2.332-.25,4.783,4.783,0,0,0,1.686-.86,3.684,3.684,0,0,0,1.032-1.27,3.909,3.909,0,0,0,.383-1.78h0Zm-4.372-5.59a1.517,1.517,0,0,0-.169-0.67,1,1,0,0,0-.527-0.5,2.111,2.111,0,0,0-.8-0.17c-0.308,0-.766-0.01-1.374-0.01h-0.237v2.88h0.43c0.583,0,.994-0.01,1.228-0.02a2.044,2.044,0,0,0,.727-0.19,1.129,1.129,0,0,0,.563-0.53,1.9,1.9,0,0,0,.157-0.79h0Zm0.856,5.53a1.673,1.673,0,0,0-.255-0.99,1.533,1.533,0,0,0-.767-0.54,2.658,2.658,0,0,0-.853-0.13c-0.362-.01-0.849-0.01-1.456-0.01h-0.63v3.4h0.184c0.888,0,1.5-.01,1.842-0.02a2.867,2.867,0,0,0,1.041-.24,1.381,1.381,0,0,0,.68-0.59A1.813,1.813,0,0,0,196.316,2370.42Z" transform="translate(-178.188 -2352.22)" fill= "#fff" fill-rule="evenodd" opacity="0.8" />
	</symbol>

	<symbol class="sprite" id="icon-heart" viewBox="0 0 14.562 12.66">
		<path d="M434.606,2362.73s7.285-3.6,7.285-8.22c0-5.13-5.5-5.94-7.3-1.71m0.049,9.93s-7.285-3.6-7.285-8.22c0-5.13,5.5-5.94,7.3-1.71" transform="translate(-427.344 -2350.06)" fill="#f7f8f8" fill-rule="evenodd"/>
	</symbol>
</svg>
